<?xml version="1.0" encoding="UTF-8" standalone="no"?>
<!-- Created with Inkscape (http://www.inkscape.org/) -->

<svg
   xmlns:dc="http://purl.org/dc/elements/1.1/"
   xmlns:cc="http://creativecommons.org/ns#"
   xmlns:rdf="http://www.w3.org/1999/02/22-rdf-syntax-ns#"
   xmlns:svg="http://www.w3.org/2000/svg"
   xmlns="http://www.w3.org/2000/svg"
   xmlns:sodipodi="http://sodipodi.sourceforge.net/DTD/sodipodi-0.dtd"
   xmlns:inkscape="http://www.inkscape.org/namespaces/inkscape"
   width="733.32281"
   height="733.02557"
   id="svg2"
   version="1.1"
   inkscape:version="0.47pre4 "
   sodipodi:docname="leavesSVG-MissVickieDOTnet">
  <defs
     id="defs4">
    <inkscape:perspective
       sodipodi:type="inkscape:persp3d"
       inkscape:vp_x="0 : 526.18109 : 1"
       inkscape:vp_y="0 : 1000 : 0"
       inkscape:vp_z="744.09448 : 526.18109 : 1"
       inkscape:persp3d-origin="372.04724 : 350.78739 : 1"
       id="perspective10" />
    <inkscape:perspective
       id="perspective2827"
       inkscape:persp3d-origin="250 : 166.66667 : 1"
       inkscape:vp_z="500 : 250 : 1"
       inkscape:vp_y="0 : 1000 : 0"
       inkscape:vp_x="0 : 250 : 1"
       sodipodi:type="inkscape:persp3d" />
    <inkscape:perspective
       id="perspective2843"
       inkscape:persp3d-origin="250 : 166.66667 : 1"
       inkscape:vp_z="500 : 250 : 1"
       inkscape:vp_y="0 : 1000 : 0"
       inkscape:vp_x="0 : 250 : 1"
       sodipodi:type="inkscape:persp3d" />
    <inkscape:perspective
       id="perspective2858"
       inkscape:persp3d-origin="250 : 166.66667 : 1"
       inkscape:vp_z="500 : 250 : 1"
       inkscape:vp_y="0 : 1000 : 0"
       inkscape:vp_x="0 : 250 : 1"
       sodipodi:type="inkscape:persp3d" />
    <inkscape:perspective
       id="perspective2874"
       inkscape:persp3d-origin="250 : 166.66667 : 1"
       inkscape:vp_z="500 : 250 : 1"
       inkscape:vp_y="0 : 1000 : 0"
       inkscape:vp_x="0 : 250 : 1"
       sodipodi:type="inkscape:persp3d" />
    <inkscape:perspective
       id="perspective2890"
       inkscape:persp3d-origin="250 : 166.66667 : 1"
       inkscape:vp_z="500 : 250 : 1"
       inkscape:vp_y="0 : 1000 : 0"
       inkscape:vp_x="0 : 250 : 1"
       sodipodi:type="inkscape:persp3d" />
  </defs>
  <sodipodi:namedview
     id="base"
     pagecolor="#ffffff"
     bordercolor="#666666"
     borderopacity="1.0"
     inkscape:pageopacity="0.0"
     inkscape:pageshadow="2"
     inkscape:zoom="0.69205128"
     inkscape:cx="366.6614"
     inkscape:cy="334.5128"
     inkscape:document-units="px"
     inkscape:current-layer="layer1"
     showgrid="false"
     inkscape:window-width="1280"
     inkscape:window-height="708"
     inkscape:window-x="-4"
     inkscape:window-y="-4"
     inkscape:window-maximized="1" />
  <metadata
     id="metadata7">
    <rdf:RDF>
      <cc:Work
         rdf:about="">
        <dc:format>image/svg+xml</dc:format>
        <dc:type
           rdf:resource="http://purl.org/dc/dcmitype/StillImage" />
        <dc:title></dc:title>
      </cc:Work>
    </rdf:RDF>
  </metadata>
  <g
     inkscape:label="Layer 1"
     inkscape:groupmode="layer"
     id="layer1"
     transform="translate(-1.9037872e-6,-383.33664)">
    <g
       inkscape:label="Calque 1"
       id="layer1-8"
       transform="matrix(-0.57832263,0,0,0.57832263,609.35657,379.75846)"
       style="fill:#ff0000">
      <path
         style="fill:#ff0000;fill-opacity:0.5"
         id="path1451"
         d="m 317.14468,490.63077 c -11.32721,-1.28631 -7.09924,-22.18526 -19.68906,-5.80919 -12.87388,3.85922 -31.28565,15.09972 -40.02926,3.41634 -19.59377,4.04464 -27.60079,-7.77971 -46.85872,-5.54835 -26.75755,-5.25017 1.22286,-24.11897 7.02349,-35.47015 -1.80353,-6.80515 -30.41033,10.19622 -37.02444,-2.6191 -20.97121,5.28465 -38.73406,-8.01994 -58.89141,-14.8558 -3.75268,-10.16159 22.6119,-25.0888 -3.25572,-20.11652 -11.5915,-7.78315 -24.55304,-9.78015 -39.600177,-17.9769 16.53195,-19.37335 -22.382818,-16.14674 -24.664397,-29.27252 -12.446985,-6.37944 -37.298575,-5.99272 -40.979139,-20.68616 20.682046,-4.44992 29.532734,-14.58309 47.844644,-20.36768 -5.623483,-14.03877 18.581695,-9.0494 24.540285,-16.53794 13.099411,-0.27618 23.854114,-0.19992 22.509394,-15.25428 19.19891,-1.10669 35.57944,5.77178 53.13273,8.0301 17.95684,7.50021 26.654,-0.84881 7.98684,-12.61839 -19.36264,-14.22578 -26.54157,-23.885 -46.21939,-39.68004 -6.02843,-9.39223 13.89975,-13.15439 -3.02567,-20.84694 -5.58357,-6.33627 -16.00521,-14.67537 -4.643,-21.00071 -4.20873,-11.89572 -22.349655,-29.02516 -12.25807,-39.77833 14.71818,0.66029 35.49129,3.33043 22.15462,-16.66022 -0.1301,-12.12728 -22.96464,-26.42663 1.38031,-29.30561 11.79811,-4.28363 -17.59589,-25.55113 4.08329,-28.472725 -8.63041,-10.170155 -9.28245,-19.810947 -8.12769,-28.77337 -8.26745,-13.016579 -8.79149,-29.677965 -20.17723,-42.44798 -13.741414,-29.097988 32.54308,3.25883 36.62431,15.911301 10.20549,12.712763 23.6597,17.200125 30.45375,31.065027 5.36902,-22.39922 23.93588,12.775879 33.22439,1.857173 7.44802,11.980235 18.38873,-18.251494 27.37531,2.418152 8.12395,2.264361 8.18494,15.605904 18.55261,14.285538 3.00337,13.307767 11.78206,22.290464 19.04158,5.078084 16.56658,-24.149304 20.01683,22.55203 32.35639,19.09208 3.63095,19.0904 12.99558,34.26596 17.17442,52.2884 9.13522,2.51097 5.67643,32.17774 14.74736,29.55832 10.28214,-15.46107 6.78901,-33.95174 14.29935,-49.32597 1.41266,-9.32032 10.22842,-20.21859 18.25588,-8.96551 12.26837,-8.38307 11.21718,-29.3789 24.61619,-27.55681 4.43118,-9.011353 18.01103,-32.143938 27.69955,-25.762999 -2.3913,20.364833 -1.83417,39.460389 6.39051,53.046109 -3.12399,10.39383 -2.92681,19.80009 9.31697,18.73833 3.5371,13.70199 -10.67096,42.55094 12.52684,29.86364 5.02578,15.2403 10.30601,25.80015 5.8586,41.10884 -6.45957,11.20235 11.11496,14.68558 -3.0782,27.79763 -4.40002,10.48574 -3.55504,27.14982 10.44998,15.30985 19.45706,-10.63029 37.53407,-10.06821 27.50534,16.81082 6.3639,15.32601 -6.02224,30.4457 -5.61444,42.71672 4.46296,13.50975 -16.16161,27.88559 -21.71609,40.30866 -2.45506,5.30031 1.86713,20.60893 -14.14227,21.35675 -20.78635,10.92511 -41.16816,2.57451 -62.55962,-0.66761 15.60844,21.60366 33.40616,41.62488 49.31095,63.01475 6.21842,22.6528 -21.03951,-15.37807 -26.99657,-22.09877 -11.67908,-14.33953 -22.68876,-29.87565 -36.14491,-42.3561 5.73954,23.8416 0.0805,48.1228 -7.73066,70.76345 -13.34571,9.5196 -20.1774,26.15836 -34.52269,34.3998 -2.77153,1.02956 -5.4668,2.51634 -8.48706,2.59681 z" />
    </g>
  </g>
</svg>
